<?xml version="1.0" standalone="no"?>
<!DOCTYPE svg PUBLIC "-//W3C//DTD SVG 20010904//EN"
 "http://www.w3.org/TR/2001/REC-SVG-20010904/DTD/svg10.dtd">
<svg version="1.0" xmlns="http://www.w3.org/2000/svg"
 width="1234.000000pt" height="1234.000000pt" viewBox="0 0 1234.000000 1234.000000"
 preserveAspectRatio="xMidYMid meet">
<metadata>
Created by potrace 1.14, written by Peter Selinger 2001-2017
</metadata>
<g transform="translate(0.000000,1234.000000) scale(0.100000,-0.100000)"
fill="#000000" stroke="none">
<path d="M5943 10665 c-142 -39 -277 -156 -350 -305 -64 -130 -77 -192 -78
-355 0 -166 14 -226 80 -362 61 -124 149 -215 261 -269 78 -38 81 -39 194 -39
97 0 124 4 172 23 161 65 291 224 350 429 19 66 23 100 22 223 -1 130 -4 154
-28 230 -40 122 -89 205 -170 286 -132 132 -294 182 -453 139z"/>
<path d="M2937 9686 c-204 -85 -315 -338 -263 -596 22 -104 46 -165 103 -252
220 -337 640 -299 768 69 98 281 -38 638 -290 763 -62 30 -80 35 -165 37 -83
3 -103 0 -153 -21z"/>
<path d="M7275 9173 c-1272 -29 -2183 -235 -2688 -608 l-87 -65 -197 -10
c-109 -5 -251 -10 -315 -10 -64 0 -129 -5 -144 -10 -15 -6 -125 -20 -243 -31
-119 -10 -252 -24 -296 -29 -964 -120 -1541 -242 -1854 -392 -175 -84 -237
-166 -195 -261 25 -57 190 -218 262 -257 32 -17 80 -48 107 -70 28 -22 70 -49
95 -60 25 -11 52 -24 60 -29 8 -6 78 -42 155 -82 76 -39 193 -103 260 -141
156 -92 408 -217 725 -363 317 -145 452 -215 515 -265 28 -22 64 -46 80 -53
44 -21 121 -87 157 -136 67 -91 29 -198 -152 -431 -146 -188 -203 -273 -251
-373 -63 -132 -82 -220 -83 -377 0 -175 14 -229 159 -615 211 -561 309 -857
405 -1230 215 -832 284 -1712 205 -2586 -16 -170 -41 -389 -52 -448 -4 -24 -2
-32 6 -27 7 5 13 -4 17 -23 10 -50 26 -55 63 -19 69 67 151 307 151 441 0 63
5 87 26 128 14 29 31 88 39 137 10 71 32 131 118 332 415 970 779 1725 1337
2770 573 1075 665 1311 702 1807 21 285 -11 488 -137 860 -40 120 -80 256 -89
302 -35 184 -11 394 64 550 91 190 225 317 441 421 128 60 242 94 424 125 176
29 268 53 474 121 366 120 818 325 1041 471 120 79 230 177 266 238 30 51 41
148 22 185 -19 35 -80 66 -168 85 -117 25 -885 41 -1425 28z m-2597 -1555 c14
-17 67 -258 87 -393 19 -126 14 -252 -15 -393 -32 -157 -121 -349 -155 -336
-8 4 -15 10 -15 14 0 5 -24 37 -53 72 -30 35 -62 83 -71 108 -10 25 -24 52
-31 60 -7 8 -21 35 -31 60 -9 25 -26 57 -36 72 -10 15 -25 45 -33 68 -8 23
-25 56 -37 73 -20 27 -23 47 -27 141 -2 62 1 125 8 145 16 55 183 217 264 257
34 17 76 38 92 47 36 20 40 21 53 5z"/>
</g>
</svg>
